<?xml version="1.0" standalone="no"?>
<!DOCTYPE svg PUBLIC "-//W3C//DTD SVG 20010904//EN"
 "http://www.w3.org/TR/2001/REC-SVG-20010904/DTD/svg10.dtd">
<svg version="1.0" xmlns="http://www.w3.org/2000/svg"
 width="512.000000pt" height="512.000000pt" viewBox="0 0 512.000000 512.000000"
 preserveAspectRatio="xMidYMid meet">
<metadata>
Created by potrace 1.14, written by Peter Selinger 2001-2017
</metadata>
<g transform="translate(0.000000,512.000000) scale(0.100000,-0.100000)"
fill="#000000" stroke="none">
<path d="M2430 5109 c-91 -16 -169 -39 -219 -65 -14 -8 -31 -14 -37 -14 -5 0
-20 -9 -32 -20 -12 -12 -22 -17 -22 -13 0 4 -4 3 -8 -3 -4 -5 -24 -20 -44 -33
-21 -12 -38 -28 -38 -33 0 -6 -3 -8 -6 -5 -12 12 -148 -138 -184 -201 -8 -15
-20 -34 -25 -42 -5 -8 -10 -17 -11 -20 0 -3 -13 -31 -28 -64 -15 -32 -34 -89
-43 -126 -14 -57 -19 -66 -37 -65 -25 3 -76 -22 -94 -44 -20 -25 -35 -64 -36
-96 -2 -56 63 -135 112 -135 12 0 23 -8 25 -17 6 -22 5 -2353 -1 -2353 -19 0
-131 78 -178 124 -34 34 -79 96 -69 96 3 0 0 10 -7 22 -6 13 -14 30 -16 38 -3
8 -5 207 -6 442 0 236 -3 428 -6 428 -3 0 -7 14 -8 31 -4 53 -43 152 -85 214
-46 68 -108 135 -125 135 -7 0 -12 4 -12 9 0 15 -132 79 -200 96 -62 16 -216
17 -275 2 -40 -10 -110 -41 -117 -51 -4 -6 -8 -7 -8 -2 0 7 -32 -10 -69 -38
-7 -6 -41 -39 -75 -72 -64 -63 -129 -176 -141 -244 -9 -48 -13 -65 -15 -65 -1
0 -3 -47 -5 -105 -1 -58 -3 -108 -4 -112 0 -3 -14 -9 -31 -13 -88 -19 -130
-115 -87 -203 11 -23 26 -42 34 -42 7 0 13 -4 13 -10 0 -5 9 -10 20 -10 11 0
20 -4 20 -9 0 -5 8 -8 17 -7 16 1 17 -24 19 -324 2 -338 4 -365 50 -480 20
-52 102 -180 115 -180 5 0 9 -5 9 -10 0 -6 24 -34 54 -64 41 -40 55 -62 58
-87 5 -50 36 -95 80 -115 42 -19 41 -19 111 -9 35 5 47 4 47 -6 0 -7 3 -10 6
-6 4 3 23 -2 43 -12 37 -19 90 -36 104 -33 4 1 7 -3 7 -9 0 -5 4 -8 9 -4 5 3
12 1 15 -4 4 -5 25 -12 49 -16 23 -4 48 -12 54 -17 7 -6 13 -8 13 -4 0 3 11 1
25 -4 14 -5 36 -12 48 -14 12 -3 33 -8 47 -11 14 -3 34 -8 45 -10 11 -3 31 -7
45 -11 14 -3 39 -7 55 -10 62 -11 70 -12 85 -18 8 -3 39 -8 68 -11 30 -3 58
-8 63 -11 5 -3 9 1 9 8 0 10 2 10 9 0 4 -8 17 -13 27 -12 11 1 31 2 45 1 l25
-1 1 -264 c0 -178 5 -276 13 -302 13 -42 124 -159 140 -149 6 4 10 1 10 -5 0
-6 5 -8 10 -5 6 3 10 1 10 -5 0 -6 4 -8 10 -5 5 3 10 2 10 -3 0 -6 12 -13 28
-18 35 -10 32 -9 65 -22 16 -7 34 -12 40 -12 7 -1 29 -7 50 -14 26 -10 37 -10
37 -2 0 7 3 7 8 -2 5 -7 27 -13 50 -15 23 -1 42 -5 42 -8 0 -3 6 -6 13 -6 28
-1 174 -13 200 -17 15 -2 30 1 33 6 3 4 11 5 17 1 18 -12 161 -10 169 2 5 7 8
6 8 -1 0 -6 12 -10 28 -8 15 2 56 6 92 10 84 8 105 11 105 14 0 1 15 3 33 5
19 2 41 7 50 10 10 4 33 9 52 11 19 2 36 8 38 14 2 5 7 8 11 6 17 -11 179 59
222 94 52 44 78 74 95 109 16 33 17 86 18 588 1 303 4 555 8 558 4 4 31 10 60
12 64 5 103 10 103 13 0 1 14 4 30 5 30 3 69 10 115 21 14 3 36 7 50 9 14 2
25 4 25 5 0 2 29 9 60 14 11 2 27 6 35 9 8 4 26 8 40 11 14 2 37 7 52 11 19 5
34 1 56 -15 63 -47 165 -19 202 54 10 22 17 43 15 47 -3 4 3 10 13 13 42 17
168 97 208 133 13 12 24 19 24 15 0 -4 6 0 13 8 7 8 26 26 42 40 26 22 121
124 143 155 25 35 74 116 76 127 2 7 8 25 14 39 34 85 35 107 36 863 l1 749
40 14 c42 14 99 68 90 84 -4 5 -2 9 4 9 5 0 8 19 6 43 -4 58 -40 114 -85 129
-34 12 -41 13 -67 16 -7 1 -13 9 -13 17 0 21 -38 102 -73 155 -37 56 -130 145
-168 162 -16 7 -29 17 -29 21 0 5 -4 5 -10 2 -5 -3 -10 -2 -10 2 0 10 -73 36
-148 53 -57 13 -230 8 -241 -7 -3 -4 -17 -9 -30 -11 -57 -6 -176 -78 -242
-146 -85 -89 -143 -209 -155 -323 -3 -32 -6 -363 -7 -735 0 -554 -3 -683 -14
-715 -8 -21 -15 -44 -17 -51 -1 -7 -14 -27 -29 -43 -15 -17 -27 -34 -27 -38 0
-3 -12 -15 -27 -26 -14 -11 -31 -25 -37 -31 -6 -5 -38 -26 -72 -46 l-60 -35 0
986 c-1 542 -4 1011 -7 1041 -8 65 -10 75 -32 159 -16 62 -16 64 4 85 11 11
24 40 29 64 22 95 -76 188 -170 161 -24 -6 -34 -1 -84 48 -122 117 -273 195
-439 228 -50 10 -237 13 -285 4z"/>
</g>
</svg>
